<svg xmlns="http://www.w3.org/2000/svg" viewBox="0 0 200 200">
  <style>
    @keyframes idle-bob {
      0%, 100% { transform: translateY(0); }
      50% { transform: translateY(-3px); }
    }
    .character { animation: idle-bob 0.9s ease-in-out infinite; }
  </style>
  <g class="character">
    <!-- Head -->
    <ellipse cx="100" cy="50" rx="20" ry="22" fill="#f5d5a0" stroke="#1a1a2e" stroke-width="2.5"/>
    <!-- Hair -->
    <path d="M80 44 Q100 34 120 44 L118 48 Q100 38 82 48 Z" fill="#4a3520" stroke="#1a1a2e" stroke-width="1.5"/>
    <!-- Eyes — slightly narrowed -->
    <ellipse cx="92" cy="50" rx="3" ry="2.5" fill="#1a1a2e"/>
    <ellipse cx="108" cy="50" rx="3" ry="2.5" fill="#1a1a2e"/>
    <!-- Neutral expression -->
    <line x1="90" y1="62" x2="110" y2="62" stroke="#1a1a2e" stroke-width="2"/>
    <!-- Neck -->
    <rect x="94" y="70" width="12" height="9" fill="#f5d5a0" stroke="#1a1a2e" stroke-width="2"/>
    <!-- Trim body / blazer -->
    <path d="M72 150 L73 88 Q75 79 100 79 Q125 79 127 88 L128 150 Z"
          fill="#1abc9c" stroke="#1a1a2e" stroke-width="2.5"/>
    <!-- Collar / lapels -->
    <path d="M100 79 L91 102 L84 79" fill="#f0f0f0" stroke="#1a1a2e" stroke-width="1.5"/>
    <path d="M100 79 L109 102 L116 79" fill="#f0f0f0" stroke="#1a1a2e" stroke-width="1.5"/>
    <!-- Trousers -->
    <path d="M72 150 L76 185 L97 185 L100 165 L103 185 L124 185 L128 150 Z"
          fill="#1a2e2a" stroke="#1a1a2e" stroke-width="2"/>
    <ellipse cx="82" cy="185" rx="8" ry="4" fill="#1a1a2e"/>
    <ellipse cx="118" cy="185" rx="8" ry="4" fill="#1a1a2e"/>
    <!-- Left arm at side, reserved -->
    <path d="M73 97 L56 128" stroke="#1abc9c" stroke-width="12" stroke-linecap="round"/>
    <path d="M73 97 L56 128" stroke="#1a1a2e" stroke-width="2.5" fill="none" stroke-linecap="round"/>
    <circle cx="54" cy="131" r="6" fill="#f5d5a0" stroke="#1a1a2e" stroke-width="2"/>
    <!-- Right arm holds clipboard at chest level -->
    <path d="M127 97 L144 105" stroke="#1abc9c" stroke-width="12" stroke-linecap="round"/>
    <path d="M127 97 L144 105" stroke="#1a1a2e" stroke-width="2.5" fill="none" stroke-linecap="round"/>
    <circle cx="147" cy="107" r="6" fill="#f5d5a0" stroke="#1a1a2e" stroke-width="2"/>
    <!-- Clipboard prop (rectangle with clip circle at top) -->
    <rect x="148" y="90" width="18" height="24" rx="2" fill="#f0f0f0" stroke="#1a1a2e" stroke-width="2"/>
    <circle cx="157" cy="88" r="4" fill="#7f8c9a" stroke="#1a1a2e" stroke-width="1.5"/>
    <!-- Lines on clipboard suggesting text -->
    <line x1="152" y1="100" x2="162" y2="100" stroke="#1a1a2e" stroke-width="1.5"/>
    <line x1="152" y1="105" x2="162" y2="105" stroke="#1a1a2e" stroke-width="1.5"/>
    <line x1="152" y1="110" x2="158" y2="110" stroke="#1a1a2e" stroke-width="1.5"/>
  </g>
</svg>
