<svg xmlns="http://www.w3.org/2000/svg" viewBox="0 0 200 200">
  <style>
    @keyframes idle-bob {
      0%, 100% { transform: translateY(0); }
      50% { transform: translateY(-3px); }
    }
    .character { animation: idle-bob 0.9s ease-in-out infinite; }
  </style>
  <g class="character">
    <!-- Head -->
    <ellipse cx="100" cy="50" rx="20" ry="22" fill="#f5d5a0" stroke="#1a1a2e" stroke-width="2.5"/>
    <!-- Hair — neat short crop -->
    <path d="M80 44 Q100 34 120 44 L118 48 Q100 38 82 48 Z" fill="#4a3520" stroke="#1a1a2e" stroke-width="1.5"/>
    <!-- Eyes -->
    <circle cx="92" cy="50" r="3" fill="#1a1a2e"/>
    <circle cx="108" cy="50" r="3" fill="#1a1a2e"/>
    <!-- Big celebratory smile -->
    <path d="M87 60 Q100 72 113 60" stroke="#1a1a2e" stroke-width="2" fill="none"/>
    <!-- Neck -->
    <rect x="94" y="70" width="12" height="9" fill="#f5d5a0" stroke="#1a1a2e" stroke-width="2"/>
    <!-- Trim body / blazer -->
    <path d="M72 150 L73 88 Q75 79 100 79 Q125 79 127 88 L128 150 Z"
          fill="#1abc9c" stroke="#1a1a2e" stroke-width="2.5"/>
    <!-- Collar / lapels -->
    <path d="M100 79 L91 102 L84 79" fill="#f0f0f0" stroke="#1a1a2e" stroke-width="1.5"/>
    <path d="M100 79 L109 102 L116 79" fill="#f0f0f0" stroke="#1a1a2e" stroke-width="1.5"/>
    <!-- Trousers -->
    <path d="M72 150 L76 185 L97 185 L100 165 L103 185 L124 185 L128 150 Z"
          fill="#1a2e2a" stroke="#1a1a2e" stroke-width="2"/>
    <ellipse cx="82" cy="185" rx="8" ry="4" fill="#1a1a2e"/>
    <ellipse cx="118" cy="185" rx="8" ry="4" fill="#1a1a2e"/>
    <!-- Left arm raised (celebratory) -->
    <path d="M73 92 L46 62" stroke="#1abc9c" stroke-width="12" stroke-linecap="round"/>
    <path d="M73 92 L46 62" stroke="#1a1a2e" stroke-width="2.5" fill="none" stroke-linecap="round"/>
    <circle cx="43" cy="59" r="7" fill="#f5d5a0" stroke="#1a1a2e" stroke-width="2"/>
    <!-- Right arm raised holding scales -->
    <path d="M127 92 L154 62" stroke="#1abc9c" stroke-width="12" stroke-linecap="round"/>
    <path d="M127 92 L154 62" stroke="#1a1a2e" stroke-width="2.5" fill="none" stroke-linecap="round"/>
    <circle cx="157" cy="59" r="7" fill="#f5d5a0" stroke="#1a1a2e" stroke-width="2"/>
    <!-- Scales held high — beam -->
    <line x1="157" y1="52" x2="157" y2="38" stroke="#8B6914" stroke-width="3"/>
    <line x1="148" y1="38" x2="166" y2="38" stroke="#1a1a2e" stroke-width="2.5"/>
    <!-- Scale pans (two small circles) -->
    <circle cx="148" cy="43" r="5" fill="none" stroke="#1a1a2e" stroke-width="2"/>
    <circle cx="166" cy="43" r="5" fill="none" stroke="#1a1a2e" stroke-width="2"/>
    <!-- Strings -->
    <line x1="148" y1="38" x2="148" y2="43" stroke="#1a1a2e" stroke-width="1.5"/>
    <line x1="166" y1="38" x2="166" y2="43" stroke="#1a1a2e" stroke-width="1.5"/>
  </g>
</svg>
