<svg xmlns="http://www.w3.org/2000/svg" viewBox="0 0 200 200">
  <style>
    @keyframes idle-bob {
      0%, 100% { transform: translateY(0); }
      50% { transform: translateY(-3px); }
    }
    .character { animation: idle-bob 0.9s ease-in-out infinite; }
  </style>
  <g class="character">
    <!-- LEFT FIGURE (red) x=10-90, centered at x=50 -->
    <!-- Head -->
    <ellipse cx="50" cy="52" rx="16" ry="18" fill="#f5d5a0" stroke="#1a1a2e" stroke-width="2.5"/>
    <!-- Eyes -->
    <circle cx="43" cy="50" r="2.5" fill="#1a1a2e"/>
    <circle cx="57" cy="50" r="2.5" fill="#1a1a2e"/>
    <!-- Big smile -->
    <path d="M40 59 Q50 68 60 59" stroke="#1a1a2e" stroke-width="2" fill="none"/>
    <!-- Neck -->
    <rect x="45" y="68" width="10" height="8" fill="#f5d5a0" stroke="#1a1a2e" stroke-width="1.5"/>
    <!-- Body -->
    <path d="M28 148 L30 86 Q32 76 50 76 Q68 76 70 86 L72 148 Z"
          fill="#c0392b" stroke="#1a1a2e" stroke-width="2.5"/>
    <!-- Shirt -->
    <rect x="46" y="76" width="8" height="20" rx="1" fill="#f0f0f0" stroke="#1a1a2e" stroke-width="1.5"/>
    <!-- Trousers -->
    <path d="M28 148 L32 185 L48 185 L50 165 L52 185 L68 185 L72 148 Z"
          fill="#1a1a2e" stroke="#1a1a2e" stroke-width="1.5"/>
    <ellipse cx="38" cy="185" rx="7" ry="4" fill="#1a1a2e"/>
    <ellipse cx="62" cy="185" rx="7" ry="4" fill="#1a1a2e"/>
    <!-- Left arm raised (outer) -->
    <path d="M30 90 L14 62" stroke="#c0392b" stroke-width="10" stroke-linecap="round"/>
    <path d="M30 90 L14 62" stroke="#1a1a2e" stroke-width="2" fill="none" stroke-linecap="round"/>
    <circle cx="12" cy="59" r="6" fill="#f5d5a0" stroke="#1a1a2e" stroke-width="1.5"/>
    <!-- Right arm raised (inner, toward center) -->
    <path d="M70 90 L80 62" stroke="#c0392b" stroke-width="10" stroke-linecap="round"/>
    <path d="M70 90 L80 62" stroke="#1a1a2e" stroke-width="2" fill="none" stroke-linecap="round"/>
    <circle cx="82" cy="59" r="6" fill="#f5d5a0" stroke="#1a1a2e" stroke-width="1.5"/>

    <!-- RIGHT FIGURE (blue) x=110-190, centered at x=150 -->
    <!-- Head -->
    <ellipse cx="150" cy="52" rx="16" ry="18" fill="#f5d5a0" stroke="#1a1a2e" stroke-width="2.5"/>
    <!-- Eyes -->
    <circle cx="143" cy="50" r="2.5" fill="#1a1a2e"/>
    <circle cx="157" cy="50" r="2.5" fill="#1a1a2e"/>
    <!-- Big smile -->
    <path d="M140 59 Q150 68 160 59" stroke="#1a1a2e" stroke-width="2" fill="none"/>
    <!-- Neck -->
    <rect x="145" y="68" width="10" height="8" fill="#f5d5a0" stroke="#1a1a2e" stroke-width="1.5"/>
    <!-- Body -->
    <path d="M128 148 L130 86 Q132 76 150 76 Q168 76 170 86 L172 148 Z"
          fill="#4a6fa5" stroke="#1a1a2e" stroke-width="2.5"/>
    <!-- Shirt -->
    <rect x="146" y="76" width="8" height="20" rx="1" fill="#f0f0f0" stroke="#1a1a2e" stroke-width="1.5"/>
    <!-- Trousers -->
    <path d="M128 148 L132 185 L148 185 L150 165 L152 185 L168 185 L172 148 Z"
          fill="#1a1a2e" stroke="#1a1a2e" stroke-width="1.5"/>
    <ellipse cx="138" cy="185" rx="7" ry="4" fill="#1a1a2e"/>
    <ellipse cx="162" cy="185" rx="7" ry="4" fill="#1a1a2e"/>
    <!-- Left arm raised (inner, toward center) -->
    <path d="M130 90 L120 62" stroke="#4a6fa5" stroke-width="10" stroke-linecap="round"/>
    <path d="M130 90 L120 62" stroke="#1a1a2e" stroke-width="2" fill="none" stroke-linecap="round"/>
    <circle cx="118" cy="59" r="6" fill="#f5d5a0" stroke="#1a1a2e" stroke-width="1.5"/>
    <!-- Right arm raised (outer) -->
    <path d="M170 90 L186 62" stroke="#4a6fa5" stroke-width="10" stroke-linecap="round"/>
    <path d="M170 90 L186 62" stroke="#1a1a2e" stroke-width="2" fill="none" stroke-linecap="round"/>
    <circle cx="188" cy="59" r="6" fill="#f5d5a0" stroke="#1a1a2e" stroke-width="1.5"/>

    <!-- Handshake / joined hands in center between them (celebratory) -->
    <ellipse cx="100" cy="82" rx="10" ry="6" fill="#f5d5a0" stroke="#1a1a2e" stroke-width="2"/>
    <line x1="82" y1="82" x2="90" y2="82" stroke="#f5d5a0" stroke-width="6" stroke-linecap="round"/>
    <line x1="110" y1="82" x2="118" y2="82" stroke="#f5d5a0" stroke-width="6" stroke-linecap="round"/>
  </g>
</svg>
