<svg xmlns="http://www.w3.org/2000/svg" viewBox="0 0 200 200">
  <style>
    @keyframes idle-bob {
      0%, 100% { transform: translateY(0); }
      50% { transform: translateY(-3px); }
    }
    .character { animation: idle-bob 0.9s ease-in-out infinite; }
  </style>
  <g class="character">
    <!-- Head — slight slouch -->
    <ellipse cx="100" cy="52" rx="19" ry="21" fill="#f5d5a0" stroke="#1a1a2e" stroke-width="2.5"/>
    <!-- Hair -->
    <path d="M81 46 Q100 36 119 46 Q116 42 100 39 Q84 42 81 46 Z" fill="#5a4a3a" stroke="#1a1a2e" stroke-width="1.5"/>
    <!-- Eyes — slightly dull, flat expression -->
    <ellipse cx="92" cy="52" rx="2.5" ry="2" fill="#1a1a2e"/>
    <ellipse cx="108" cy="52" rx="2.5" ry="2" fill="#1a1a2e"/>
    <!-- Flat / neutral expression -->
    <line x1="90" y1="63" x2="110" y2="63" stroke="#1a1a2e" stroke-width="2"/>
    <!-- Neck -->
    <rect x="94" y="71" width="12" height="9" fill="#f5d5a0" stroke="#1a1a2e" stroke-width="2"/>
    <!-- Plain office shirt -->
    <path d="M68 150 L70 89 Q72 80 100 80 Q128 80 130 89 L132 150 Z"
          fill="#7f8c9a" stroke="#1a1a2e" stroke-width="2.5"/>
    <!-- Collar and tie -->
    <path d="M100 80 L93 98 L88 80" fill="#f0f0f0" stroke="#1a1a2e" stroke-width="1.5"/>
    <path d="M100 80 L107 98 L112 80" fill="#f0f0f0" stroke="#1a1a2e" stroke-width="1.5"/>
    <path d="M97 80 L100 106 L103 80" fill="#b0c4d0" stroke="#1a1a2e" stroke-width="1.5"/>
    <!-- Trousers -->
    <path d="M68 150 L72 185 L97 185 L100 165 L103 185 L128 185 L132 150 Z"
          fill="#4a5560" stroke="#1a1a2e" stroke-width="2"/>
    <ellipse cx="79" cy="185" rx="9" ry="4" fill="#1a1a2e"/>
    <ellipse cx="121" cy="185" rx="9" ry="4" fill="#1a1a2e"/>
    <!-- Arms at sides, slightly drooped -->
    <path d="M70 100 L54 130" stroke="#7f8c9a" stroke-width="12" stroke-linecap="round"/>
    <path d="M70 100 L54 130" stroke="#1a1a2e" stroke-width="2.5" fill="none" stroke-linecap="round"/>
    <circle cx="52" cy="133" r="6" fill="#f5d5a0" stroke="#1a1a2e" stroke-width="2"/>
    <!-- Right arm holds clipboard loosely at side -->
    <path d="M130 100 L146 130" stroke="#7f8c9a" stroke-width="12" stroke-linecap="round"/>
    <path d="M130 100 L146 130" stroke="#1a1a2e" stroke-width="2.5" fill="none" stroke-linecap="round"/>
    <circle cx="148" cy="133" r="6" fill="#f5d5a0" stroke="#1a1a2e" stroke-width="2"/>
    <!-- Clipboard held low at side -->
    <rect x="146" y="128" width="16" height="22" rx="2" fill="#f0f0f0" stroke="#1a1a2e" stroke-width="2"/>
    <circle cx="154" cy="126" r="4" fill="#7f8c9a" stroke="#1a1a2e" stroke-width="1.5"/>
    <line x1="150" y1="138" x2="158" y2="138" stroke="#1a1a2e" stroke-width="1.5"/>
    <line x1="150" y1="143" x2="158" y2="143" stroke="#1a1a2e" stroke-width="1.5"/>
  </g>
</svg>
