<svg xmlns="http://www.w3.org/2000/svg" viewBox="0 0 200 200">
  <style>
    @keyframes idle-bob {
      0%, 100% { transform: translateY(0); }
      50% { transform: translateY(-3px); }
    }
    .character { animation: idle-bob 0.9s ease-in-out infinite; }
  </style>
  <g class="character">
    <!-- Head -->
    <ellipse cx="100" cy="52" rx="19" ry="21" fill="#f5d5a0" stroke="#1a1a2e" stroke-width="2.5"/>
    <!-- Hair — plain parted -->
    <path d="M81 46 Q100 36 119 46 Q116 42 100 39 Q84 42 81 46 Z" fill="#5a4a3a" stroke="#1a1a2e" stroke-width="1.5"/>
    <!-- Eyes -->
    <circle cx="92" cy="52" r="2.5" fill="#1a1a2e"/>
    <circle cx="108" cy="52" r="2.5" fill="#1a1a2e"/>
    <!-- Celebratory surprised smile -->
    <path d="M87 62 Q100 73 113 62" stroke="#1a1a2e" stroke-width="2" fill="none"/>
    <!-- Neck -->
    <rect x="94" y="71" width="12" height="9" fill="#f5d5a0" stroke="#1a1a2e" stroke-width="2"/>
    <!-- Plain office shirt / slight slouch body -->
    <path d="M68 150 L70 89 Q72 80 100 80 Q128 80 130 89 L132 150 Z"
          fill="#7f8c9a" stroke="#1a1a2e" stroke-width="2.5"/>
    <!-- Collar and tie -->
    <path d="M100 80 L93 98 L88 80" fill="#f0f0f0" stroke="#1a1a2e" stroke-width="1.5"/>
    <path d="M100 80 L107 98 L112 80" fill="#f0f0f0" stroke="#1a1a2e" stroke-width="1.5"/>
    <path d="M97 80 L100 106 L103 80" fill="#b0c4d0" stroke="#1a1a2e" stroke-width="1.5"/>
    <!-- Trousers -->
    <path d="M68 150 L72 185 L97 185 L100 165 L103 185 L128 185 L132 150 Z"
          fill="#4a5560" stroke="#1a1a2e" stroke-width="2"/>
    <ellipse cx="79" cy="185" rx="9" ry="4" fill="#1a1a2e"/>
    <ellipse cx="121" cy="185" rx="9" ry="4" fill="#1a1a2e"/>
    <!-- Left arm raised (celebratory, surprised) -->
    <path d="M70 94 L44 65" stroke="#7f8c9a" stroke-width="12" stroke-linecap="round"/>
    <path d="M70 94 L44 65" stroke="#1a1a2e" stroke-width="2.5" fill="none" stroke-linecap="round"/>
    <circle cx="41" cy="62" r="7" fill="#f5d5a0" stroke="#1a1a2e" stroke-width="2"/>
    <!-- Right arm raised holding clipboard up -->
    <path d="M130 94 L155 65" stroke="#7f8c9a" stroke-width="12" stroke-linecap="round"/>
    <path d="M130 94 L155 65" stroke="#1a1a2e" stroke-width="2.5" fill="none" stroke-linecap="round"/>
    <circle cx="158" cy="62" r="7" fill="#f5d5a0" stroke="#1a1a2e" stroke-width="2"/>
    <!-- Clipboard raised high -->
    <rect x="155" y="38" width="18" height="24" rx="2" fill="#f0f0f0" stroke="#1a1a2e" stroke-width="2" transform="rotate(15 164 50)"/>
    <circle cx="163" cy="37" r="4" fill="#7f8c9a" stroke="#1a1a2e" stroke-width="1.5" transform="rotate(15 163 37)"/>
    <!-- Check mark on clipboard -->
    <path d="M159 52 L162 56 L168 48" stroke="#1a1a2e" stroke-width="2.5" fill="none" transform="rotate(15 163 50)"/>
  </g>
</svg>
